<svg width="1792" height="1792" xmlns="http://www.w3.org/2000/svg">

 <g>
  <title>background</title>
  <rect fill="none" id="canvas_background" height="402" width="582" y="-1" x="-1"/>
 </g>
 <g>
  <title>Layer 1</title>
  <path fill="#ec6c51" id="svg_1" d="m598.032669,1402.754084q0,-52 -38,-90t-90,-38t-90,38t-38,90t38,90t90,38t90,-38t38,-90zm-384,-512l384,0l0,-256l-158,0q-13,0 -22,9l-195,195q-9,9 -9,22l0,30zm1280,512q0,-52 -38,-90t-90,-38t-90,38t-38,90t38,90t90,38t90,-38t38,-90zm256,-1088l0,1024q0,15 -4,26.5t-13.5,18.5t-16.5,11.5t-23.5,6t-22.5,2t-25.5,0t-22.5,-0.5q0,106 -75,181t-181,75t-181,-75t-75,-181l-384,0q0,106 -75,181t-181,75t-181,-75t-75,-181l-64,0q-3,0 -22.5,0.5t-25.5,0t-22.5,-2t-23.5,-6t-16.5,-11.5t-13.5,-18.5t-4,-26.5q0,-26 19,-45t45,-19l0,-320q0,-8 -0.5,-35t0,-38t2.5,-34.5t6.5,-37t14,-30.5t22.5,-30l198,-198q19,-19 50.5,-32t58.5,-13l160,0l0,-192q0,-26 19,-45t45,-19l1024,0q26,0 45,19t19,45z"/>
 </g>
</svg>